{"title":"Savages 2012 720p WEBRip XViD UNiQUE","uid":7783359,"size":3545452040,"categoryP":"video","categoryS":"hd___movies","magnet":"?xt=urn:btih:4427806f13253bd5d133c116f04993ad6863383e&amp;dn=Savages+2012+720p+WEBRip+XViD+UNiQUE&amp;tr=udp%3A%2F%2Ftracker.openbittorrent.com%3A80&amp;tr=udp%3A%2F%2Fopen.demonii.com%3A1337&amp;tr=udp%3A%2F%2Ftracker.coppersurfer.tk%3A6969&amp;tr=udp%3A%2F%2Fexodus.desync.com%3A6969","seeders":2,"leechers":0,"uploader":"HeroMaster","files":-1,"time":1351828758,"description":"Savages 2012 720p WEBRip XViD UNiQUE\n\n\n[[.....Why not be the same as everyone else when YOU can be UNiQUE .....]] \n\n\nFormat: AVI \nFormat / Info: Audio Video Interleave \nFormat profile: OpenDML \nFile size: 3.28 GiB \nDuration: 1h 49mn \nOverall bit rate: 4 287 Kbps \nWriting application: VirtualDubMod 1.5.10.2 (build 2540/release) \nWriting library: VirtualDub build 30091/release \n\nVideo \nID: 0 \nFormat: MPEG-4 Visual \nSimple @ L1: Format profile \nFormat settings, BVOP: No \nFormat settings, QPel: No \nFormat settings, GMC: No warppoints \nFormat settings, Matrix: Default (H.263) \nCodec ID: XVID \nCodec ID / Hint: XviD \nDuration: 1h 49mn \nBit rate: 3893 Kbps \nWidth: 1 280 pixels \nHeight: 532 pixels \nDisplay aspect ratio: 2.40:1 \nFrame rate: 23.976 fps \nColor space: YUV \nChroma subsampling: 4:2:0 \nBit depth: 8 bits \nScan type: Progressive \nCompression mode: Lossy \nBits / (Pixel * Frame): 0.238 \nStream size: 2.97 MiB (91%) \nWriting library: Lavc52.0.0 \n\nAudio \nID: 1 \nFormat: AC-3 \nFormat / Info: Audio Coding 3 \nMode extension: CM (complete main) \nFormat settings, Endianness: Big \nCodec ID: 2000 \nDuration: 1h 49mn \nBit rate mode: Constant \nBit rate: 384 Kbps \nChannel (s): 6 channels \nChannel positions: Front: LCR, Side: LR, LFE \nSampling rate: 44.1 KHz \nBit depth: 16 bits \nCompression mode: Lossy \nDelay relative to video: 400ms \nStream size: 300 MiB (9%) \nAlignment: Aligned on interleaves \nInterleave duration,: 42 ms (1.00 video frame) \nInterleave preload duration, 500 ms \n\n &lt;a href=&quot;\nhttp://www.imdb.com/title/tt1615065/&quot; rel=&quot;nofollow&quot; target=&quot;_NEW&quot;&gt;\nhttp://www.imdb.com/title/tt1615065/&lt;/a&gt;\n\n\nRatings: 6.7/10 from 15.705 users Metascore: 59/100 \nReviews: 130 user | 219 critic | 41 from Metacritic.com \n\nPot growers Ben and Chon face off against the Mexican drug cartel who kidnapped their shared girlfriend. \n\nDirector: \nOliver Stone \nWriters: \nShane Salerno (screenplay), Don Winslow (screenplay), and 2 more credits \nStars: \nAaron Taylor-Johnson, Taylor Kitsch and Blake Lively | See full cast and crew \n\n\nSource Used \n\nToothfairy / iTUNES...........Thanks \n\n\nPoster:\n\n &lt;a href=&quot;\nhttp://imgon.net/di-C0LJ.jpg&quot; rel=&quot;nofollow&quot; target=&quot;_NEW&quot;&gt;\nhttp://imgon.net/di-C0LJ.jpg&lt;/a&gt;\n\n\nScreenshots:\n\n &lt;a href=&quot;\nhttp://imgon.net/di-E795.png&quot; rel=&quot;nofollow&quot; target=&quot;_NEW&quot;&gt;\nhttp://imgon.net/di-E795.png&lt;/a&gt;\n\n &lt;a href=&quot;\nhttp://imgon.net/di-X6XL.jpg&quot; rel=&quot;nofollow&quot; target=&quot;_NEW&quot;&gt;\nhttp://imgon.net/di-X6XL.jpg&lt;/a&gt;\n\n &lt;a href=&quot;\nhttp://imgon.net/di-TPFJ.png&quot; rel=&quot;nofollow&quot; target=&quot;_NEW&quot;&gt;\nhttp://imgon.net/di-TPFJ.png&lt;/a&gt;\n\n\nENJOY!","torrent":{"xt":"urn:btih:4427806f13253bd5d133c116f04993ad6863383e","amp;dn":"Savages+2012+720p+WEBRip+XViD+UNiQUE","amp;tr":["udp%3A%2F%2Ftracker.openbittorrent.com%3A80","udp%3A%2F%2Fopen.demonii.com%3A1337","udp%3A%2F%2Ftracker.coppersurfer.tk%3A6969","udp%3A%2F%2Fexodus.desync.com%3A6969"],"infoHash":"4427806f13253bd5d133c116f04993ad6863383e","infoHashBuffer":{"type":"Buffer","data":[68,39,128,111,19,37,59,213,209,51,193,22,240,73,147,173,104,99,56,62]},"announce":[],"urlList":[]}}